<svg xmlns="http://www.w3.org/2000/svg" viewBox="0 0 200 50">
  <style>
    .logo-text {
      font-family: 'Nunito', sans-serif;
      font-size: 28px;
      font-weight: bold;
      fill: #5A9BD5;
    }
    .paw {
      fill: #FF857A;
    }
  </style>
  <text x="10" y="35" class="logo-text">PetTastic</text>
  <path class="paw" d="M180,20 C183,17 186,17 188,20 C190,23 190,26 188,28 C186,30 183,30 180,28 C178,26 178,23 180,20 Z M170,15 C172,12 175,12 177,15 C179,18 179,21 177,23 C175,25 172,25 170,23 C168,21 168,18 170,15 Z M190,15 C192,12 195,12 197,15 C199,18 199,21 197,23 C195,25 192,25 190,23 C188,21 188,18 190,15 Z M180,30 C185,30 190,33 190,37 C190,41 185,44 180,44 C175,44 170,41 170,37 C170,33 175,30 180,30 Z"/>
</svg>
